<?xml version="1.0" standalone="no"?>
<!DOCTYPE svg PUBLIC "-//W3C//DTD SVG 20010904//EN"
 "http://www.w3.org/TR/2001/REC-SVG-20010904/DTD/svg10.dtd">
<svg version="1.0" xmlns="http://www.w3.org/2000/svg"
 width="112.000000pt" height="81.000000pt" viewBox="0 0 112.000000 81.000000"
 preserveAspectRatio="xMidYMid meet">

<g transform="translate(0.000000,81.000000) scale(0.100000,-0.100000)"
fill="#000000" stroke="none">
<path d="M50 410 l0 -360 510 0 510 0 0 360 0 360 -510 0 -510 0 0 -360z m995
105 l0 -230 -487 -3 -488 -2 0 235 0 235 488 -2 487 -3 0 -230z m-803 -308
c33 32 39 11 6 -24 -28 -30 -38 -29 -71 5 -34 35 -22 52 12 17 l25 -25 28 27z
m116 -13 c-10 -10 -28 6 -28 24 0 15 1 15 17 -1 9 -9 14 -19 11 -23z m53 -8
c-12 -12 -21 -32 -21 -44 0 -12 -4 -22 -10 -22 -5 0 -10 12 -10 27 0 28 52 93
58 73 2 -6 -5 -22 -17 -34z m174 34 c4 -6 -15 -10 -49 -10 -31 0 -56 5 -56 10
0 6 22 10 49 10 28 0 53 -4 56 -10z m73 -51 c-2 -24 -7 -44 -13 -44 -12 0 -19
69 -10 93 11 29 26 -4 23 -49z m56 45 c19 -18 20 -26 4 -42 -8 -8 -8 -15 2
-27 22 -26 2 -30 -26 -4 -24 22 -24 24 -7 37 17 13 17 14 1 26 -10 7 -15 16
-11 19 10 11 20 8 37 -9z m164 -45 c-2 -24 -7 -44 -13 -44 -12 0 -19 69 -10
93 11 29 26 -4 23 -49z m56 45 c9 -8 16 -19 16 -23 0 -14 -24 -31 -44 -31 -21
1 -21 1 -1 16 19 14 19 16 3 28 -10 7 -15 16 -11 19 10 11 20 8 37 -9z m-134
-44 c0 -27 -4 -50 -10 -50 -5 0 -10 23 -10 50 0 28 5 50 10 50 6 0 10 -22 10
-50z m-260 -15 c0 -19 -4 -35 -10 -35 -5 0 -10 16 -10 35 0 19 5 35 10 35 6 0
10 -16 10 -35z m-370 -10 c0 -14 -4 -25 -10 -25 -5 0 -10 11 -10 25 0 14 5 25
10 25 6 0 10 -11 10 -25z m110 6 c0 -23 -16 -36 -25 -21 -9 14 1 40 15 40 5 0
10 -9 10 -19z"/>
<path d="M392 657 c-9 -10 8 -33 73 -97 l85 -85 80 80 c44 44 80 85 80 92 0
33 -28 20 -91 -43 l-69 -68 -68 67 c-37 37 -70 67 -74 67 -3 0 -10 -6 -16 -13z"/>
<path d="M392 518 c-16 -16 -16 -113 1 -126 26 -22 38 3 35 68 -3 64 -13 81
-36 58z"/>
<path d="M674 517 c-3 -8 -4 -41 -2 -73 2 -44 7 -59 18 -59 12 0 15 14 15 69
0 47 -4 71 -12 73 -7 3 -15 -2 -19 -10z"/>
</g>
</svg>
