<svg width="36" height="36" viewBox="0 0 36 36" fill="none" xmlns="http://www.w3.org/2000/svg">
<path d="M35.981 18.3368C35.981 16.8619 35.8585 15.7856 35.5934 14.6694H18.3585V21.3264H28.475C28.2711 22.9808 27.1697 25.4722 24.7221 27.1463L24.6878 27.3692L30.1372 31.4945L30.5147 31.5313C33.982 28.4021 35.981 23.7979 35.981 18.3368Z" fill="#4285F4"/>
<path d="M18.3585 35.8764C23.3148 35.8764 27.4756 34.2818 30.5147 31.5314L24.7221 27.1464C23.172 28.2027 21.0916 28.9402 18.3585 28.9402C13.5042 28.9402 9.38421 25.8111 7.91553 21.486L7.70026 21.5038L2.03394 25.7891L1.95984 25.9904C4.97846 31.8501 11.179 35.8764 18.3585 35.8764Z" fill="#34A853"/>
<path d="M7.91553 21.4859C7.52801 20.3698 7.30373 19.1738 7.30373 17.9382C7.30373 16.7023 7.52801 15.5065 7.89514 14.3904L7.88488 14.1527L2.14755 9.79858L1.95983 9.88584C0.715711 12.3175 0.00183105 15.0481 0.00183105 17.9382C0.00183105 20.8282 0.715711 23.5587 1.95983 25.9903L7.91553 21.4859Z" fill="#FBBC05"/>
<path d="M18.3585 6.93604C21.8055 6.93604 24.1306 8.39102 25.4564 9.60691L30.6371 4.66392C27.4553 1.77389 23.3148 0 18.3585 0C11.179 0 4.97847 4.02609 1.95984 9.88585L7.89515 14.3904C9.38422 10.0653 13.5042 6.93604 18.3585 6.93604Z" fill="#EB4335"/>
</svg>
